<?xml version="1.0" encoding="UTF-8"?>
<svg version="1.1" xmlns="http://www.w3.org/2000/svg" width="256" height="256">
<path d="M0 0 C84.48 0 168.96 0 256 0 C256 84.48 256 168.96 256 256 C171.52 256 87.04 256 0 256 C0 171.52 0 87.04 0 0 Z " fill="#EC821F" transform="translate(0,0)"/>
<path d="M0 0 C2.21263605 1.65466696 4.26620248 3.38222341 6.30859375 5.2421875 C7.44361328 6.25732422 7.44361328 6.25732422 8.6015625 7.29296875 C14.29623055 12.66331734 18.42430877 18.47010951 22.30859375 25.2421875 C22.69789063 25.87382813 23.0871875 26.50546875 23.48828125 27.15625 C32.09530384 42.30194092 32.75514405 62.99561465 28.87109375 79.6171875 C23.25886354 98.9724408 10.48202397 114.87106141 -6.7734375 125.0625 C-17.95030121 130.89263336 -29.06726596 134.45984509 -41.69140625 134.2421875 C-41.95953125 134.9640625 -42.22765625 135.6859375 -42.50390625 136.4296875 C-43.68123123 139.21808876 -45.08286509 141.68314474 -46.69140625 144.2421875 C-50.42005544 143.67968105 -52.93309426 142.70508625 -56.0625 140.6171875 C-56.87726807 140.0799707 -57.69203613 139.54275391 -58.53149414 138.98925781 C-59.38864014 138.41272461 -60.24578613 137.83619141 -61.12890625 137.2421875 C-62.92804209 136.04896134 -64.72752282 134.85625505 -66.52734375 133.6640625 C-67.40745117 133.07818359 -68.28755859 132.49230469 -69.19433594 131.88867188 C-71.9492343 130.07218433 -74.73641262 128.31510253 -77.53637695 126.56933594 C-97.04314679 114.33566593 -109.92482835 99.5650209 -115.55810547 76.81933594 C-119.78133379 56.86611227 -116.46572048 37.20420508 -105.79443359 19.90673828 C-102.90655613 15.54871515 -99.43454252 11.86718492 -95.69140625 8.2421875 C-94.46550781 7.03755859 -94.46550781 7.03755859 -93.21484375 5.80859375 C-88.09131425 0.97851718 -83.00836363 -2.68163944 -76.69140625 -5.7578125 C-76.11156982 -6.06992676 -75.5317334 -6.38204102 -74.93432617 -6.70361328 C-50.47181561 -19.62097187 -22.38565181 -14.62052731 0 0 Z " fill="#E1F400" transform="translate(174.69140625,64.7578125)"/>
<path d="M0 0 C2.21263605 1.65466696 4.26620248 3.38222341 6.30859375 5.2421875 C7.44361328 6.25732422 7.44361328 6.25732422 8.6015625 7.29296875 C14.29623055 12.66331734 18.42430877 18.47010951 22.30859375 25.2421875 C22.69789063 25.87382813 23.0871875 26.50546875 23.48828125 27.15625 C32.09530384 42.30194092 32.75514405 62.99561465 28.87109375 79.6171875 C23.25886354 98.9724408 10.48202397 114.87106141 -6.7734375 125.0625 C-17.95030121 130.89263336 -29.06726596 134.45984509 -41.69140625 134.2421875 C-41.95953125 134.9640625 -42.22765625 135.6859375 -42.50390625 136.4296875 C-43.68123123 139.21808876 -45.08286509 141.68314474 -46.69140625 144.2421875 C-50.42005544 143.67968105 -52.93309426 142.70508625 -56.0625 140.6171875 C-56.87726807 140.0799707 -57.69203613 139.54275391 -58.53149414 138.98925781 C-59.38864014 138.41272461 -60.24578613 137.83619141 -61.12890625 137.2421875 C-62.92804209 136.04896134 -64.72752282 134.85625505 -66.52734375 133.6640625 C-67.40745117 133.07818359 -68.28755859 132.49230469 -69.19433594 131.88867188 C-71.9492343 130.07218433 -74.73641262 128.31510253 -77.53637695 126.56933594 C-97.04314679 114.33566593 -109.92482835 99.5650209 -115.55810547 76.81933594 C-119.78133379 56.86611227 -116.46572048 37.20420508 -105.79443359 19.90673828 C-102.90655613 15.54871515 -99.43454252 11.86718492 -95.69140625 8.2421875 C-94.46550781 7.03755859 -94.46550781 7.03755859 -93.21484375 5.80859375 C-88.09131425 0.97851718 -83.00836363 -2.68163944 -76.69140625 -5.7578125 C-76.11156982 -6.06992676 -75.5317334 -6.38204102 -74.93432617 -6.70361328 C-50.47181561 -19.62097187 -22.38565181 -14.62052731 0 0 Z M-65.69140625 10.2421875 C-66.45453125 10.5928125 -67.21765625 10.9434375 -68.00390625 11.3046875 C-81.9471485 18.27630862 -91.81917471 30.94930318 -96.8125 45.51171875 C-97.80661791 49.731197 -98.0364014 53.55136796 -98.00390625 57.8671875 C-97.9982666 58.65552979 -97.99262695 59.44387207 -97.98681641 60.25610352 C-97.64396137 76.96943769 -91.64846461 89.63259922 -79.69140625 101.2421875 C-67.521162 112.06018239 -54.63102241 115.03301741 -38.69140625 114.2421875 C-24.4945595 113.28611015 -12.22544402 106.70852047 -2.69140625 96.2421875 C-0.42823772 93.36668982 1.49498866 90.4174267 3.30859375 87.2421875 C3.68628906 86.61957031 4.06398438 85.99695313 4.453125 85.35546875 C10.94409 73.75925037 12.61080579 57.78173266 9.18359375 44.9296875 C3.26619108 28.574644 -7.75359316 16.91214247 -23.31640625 9.3671875 C-35.54404029 3.68604061 -53.79658183 4.29477529 -65.69140625 10.2421875 Z " fill="#DDEF00" transform="translate(174.69140625,64.7578125)"/>
<path d="M0 0 C0.79825195 0.00894287 1.59650391 0.01788574 2.41894531 0.02709961 C18.37011645 0.34060022 31.3636211 6.15467008 42.625 17.41796875 C46.21763423 21.38848677 48.8519558 25.44700378 51.1875 30.25 C51.58582031 31.05824219 51.98414063 31.86648437 52.39453125 32.69921875 C58.88922917 46.58364364 57.0734037 62.12501983 52.1875 76.25 C50.54595034 79.9222813 48.61562976 83.04878857 46.1875 86.25 C45.23230469 87.51070312 45.23230469 87.51070312 44.2578125 88.796875 C34.63249456 100.43187471 22.06331174 106.54941644 7.1875 108.25 C-8.82727083 109.30219541 -21.77663576 105.52011976 -34.0625 95 C-45.88561907 83.81495402 -51.60320074 70.79798676 -52.14868164 54.68505859 C-52.28317849 46.46467873 -51.54610266 39.71720531 -47.8125 32.25 C-47.461875 31.486875 -47.11125 30.72375 -46.75 29.9375 C-39.77295842 15.98341685 -27.11018286 6.15135811 -12.5546875 1.125 C-8.26656415 0.12234903 -4.38311092 -0.0552298 0 0 Z M-23.8125 25.25 C-24.50085938 25.88679688 -25.18921875 26.52359375 -25.8984375 27.1796875 C-32.93397449 34.31984214 -36.92284315 43.06210413 -37.4375 53.125 C-36.86129726 64.29446841 -33.17199807 74.22157642 -25.203125 82.1640625 C-16.73928457 89.54917817 -8.19766669 93.96566363 3.2265625 93.59765625 C15.79512835 92.12192754 25.79813703 86.86639655 33.7578125 77.109375 C39.84539002 69.19219767 42.48232844 59.20126574 41.1875 49.25 C38.60699017 37.1784625 33.33136229 28.38891678 23.1875 21.25 C7.70966139 12.83718604 -10.35599081 12.4806317 -23.8125 25.25 Z " fill="#E1F400" transform="translate(128.8125,70.75)"/>
<path d="M0 0 C2.21263605 1.65466696 4.26620248 3.38222341 6.30859375 5.2421875 C7.44361328 6.25732422 7.44361328 6.25732422 8.6015625 7.29296875 C14.29623055 12.66331734 18.42430877 18.47010951 22.30859375 25.2421875 C22.69789063 25.87382813 23.0871875 26.50546875 23.48828125 27.15625 C32.09530384 42.30194092 32.75514405 62.99561465 28.87109375 79.6171875 C23.25886354 98.9724408 10.48202397 114.87106141 -6.7734375 125.0625 C-17.95030121 130.89263336 -29.06726596 134.45984509 -41.69140625 134.2421875 C-41.95953125 134.9640625 -42.22765625 135.6859375 -42.50390625 136.4296875 C-43.68123123 139.21808876 -45.08286509 141.68314474 -46.69140625 144.2421875 C-50.42005544 143.67968105 -52.93309426 142.70508625 -56.0625 140.6171875 C-56.87726807 140.0799707 -57.69203613 139.54275391 -58.53149414 138.98925781 C-59.38864014 138.41272461 -60.24578613 137.83619141 -61.12890625 137.2421875 C-62.92804209 136.04896134 -64.72752282 134.85625505 -66.52734375 133.6640625 C-67.40745117 133.07818359 -68.28755859 132.49230469 -69.19433594 131.88867188 C-71.9492343 130.07218433 -74.73641262 128.31510253 -77.53637695 126.56933594 C-97.04314679 114.33566593 -109.92482835 99.5650209 -115.55810547 76.81933594 C-119.78133379 56.86611227 -116.46572048 37.20420508 -105.79443359 19.90673828 C-102.90655613 15.54871515 -99.43454252 11.86718492 -95.69140625 8.2421875 C-94.46550781 7.03755859 -94.46550781 7.03755859 -93.21484375 5.80859375 C-88.09131425 0.97851718 -83.00836363 -2.68163944 -76.69140625 -5.7578125 C-76.11156982 -6.06992676 -75.5317334 -6.38204102 -74.93432617 -6.70361328 C-50.47181561 -19.62097187 -22.38565181 -14.62052731 0 0 Z M-95.8515625 13.12109375 C-105.40120499 24.1305542 -112.87488834 38.47281934 -113.69140625 53.2421875 C-113.75585938 54.33402344 -113.8203125 55.42585938 -113.88671875 56.55078125 C-114.18844022 66.21592576 -112.71675379 74.03005658 -109.69140625 83.2421875 C-109.39105469 84.1703125 -109.09070313 85.0984375 -108.78125 86.0546875 C-102.33927717 103.90257758 -87.78490865 116.74309935 -71.1015625 124.69921875 C-55.29271027 131.85213585 -38.45315368 132.51292529 -22.18359375 126.59765625 C-21.03117187 126.15035156 -19.87875 125.70304688 -18.69140625 125.2421875 C-17.36496094 124.74138672 -17.36496094 124.74138672 -16.01171875 124.23046875 C-0.19765868 117.74615692 13.40923091 104.9107177 20.1328125 89.16796875 C21.69948029 85.2434889 23.03233384 81.26997724 24.30859375 77.2421875 C24.57542969 76.44425781 24.84226563 75.64632812 25.1171875 74.82421875 C29.80043085 58.12603383 25.13937282 39.63575671 17.00390625 24.875 C6.07603991 7.52624044 -9.5193348 -2.55169069 -28.69140625 -8.7578125 C-53.73354505 -13.40272534 -78.23863964 -5.35626704 -95.8515625 13.12109375 Z " fill="#111200" transform="translate(174.69140625,64.7578125)"/>
<path d="M0 0 C3.57265638 2.78913588 6.81729641 5.77664144 10 9 C10.56203125 9.54011719 11.1240625 10.08023438 11.703125 10.63671875 C22.90179206 22.33637881 25.50892441 37.10715159 25.2421875 52.56640625 C24.68751095 68.6492802 17.53987817 81.92954061 6 93 C-7.47670718 105.48211625 -23.15926941 108.78252969 -40.94140625 108.4453125 C-54.42416144 107.77965249 -66.97598697 100.94955283 -76 91 C-76.60457031 90.41089844 -77.20914063 89.82179688 -77.83203125 89.21484375 C-89.48392726 77.29560023 -93.44374613 62.1157903 -93.43603516 45.84692383 C-93.2780393 37.32527559 -91.84893954 30.68761524 -88 23 C-87.38318359 21.69095703 -87.38318359 21.69095703 -86.75390625 20.35546875 C-79.42217969 6.54049437 -65.94113875 -3.90450995 -51.1328125 -8.4921875 C-33.15768517 -12.77197972 -15.50588669 -10.07785358 0 0 Z M-56 -1 C-56.763125 -0.649375 -57.52625 -0.29875 -58.3125 0.0625 C-72.25574225 7.03412112 -82.12776846 19.70711568 -87.12109375 34.26953125 C-88.11521166 38.4890095 -88.34499515 42.30918046 -88.3125 46.625 C-88.30686035 47.41334229 -88.3012207 48.20168457 -88.29541016 49.01391602 C-87.95255512 65.72725019 -81.95705836 78.39041172 -70 90 C-57.82975575 100.81799489 -44.93961616 103.79082991 -29 103 C-14.80315325 102.04392265 -2.53403777 95.46633297 7 85 C9.26316853 82.12450232 11.18639491 79.1752392 13 76 C13.37769531 75.37738281 13.75539063 74.75476563 14.14453125 74.11328125 C20.63549625 62.51706287 22.30221204 46.53954516 18.875 33.6875 C12.95759733 17.3324565 1.93781309 5.66995497 -13.625 -1.875 C-25.85263404 -7.55614689 -44.10517558 -6.94741221 -56 -1 Z " fill="#101200" transform="translate(165,76)"/>
<path d="M0 0 C0.65613281 0.25523438 1.31226563 0.51046875 1.98828125 0.7734375 C10.99477825 4.7081396 18.18389506 11.60436534 22.10546875 20.59765625 C26.00778485 31.07767548 26.37913923 41.51926012 22 52 C15.17701875 63.52530617 7.60868388 69.6883111 -5 74 C-15.4189731 76.50119079 -24.55182625 75.06319212 -34 70 C-45.29597081 61.60393567 -51.35456929 51.66918168 -53.4921875 37.80859375 C-53.95808678 27.51770083 -50.411145 18.34355729 -43.75 10.5625 C-31.65996597 -1.72703954 -16.35628901 -6.85236152 0 0 Z M-42.15234375 16.296875 C-47.2352329 23.73315258 -49.5090333 32.06099357 -48 41 C-45.03884628 51.12861059 -41.46501914 59.24306734 -32.0625 64.70703125 C-24.02596016 68.91242649 -16.43499845 71.66340433 -7.35546875 69.31640625 C3.29627966 65.72609665 10.53419011 60.93783617 16 51 C16.80630859 49.64261719 16.80630859 49.64261719 17.62890625 48.2578125 C20.78971752 40.74750881 20.22019081 31.11646789 17.93359375 23.40234375 C14.88186335 16.82490847 10.98638118 12.06295907 5 8 C4.30648437 7.4946875 3.61296875 6.989375 2.8984375 6.46875 C-12.38245834 -2.98335052 -31.42138034 3.28728597 -42.15234375 16.296875 Z " fill="#101200" transform="translate(145,89)"/>
<path d="M0 0 C17.95395537 11.96167982 31.58705342 28.33050271 36.60668945 49.62060547 C40.30712919 71.47440757 36.99437467 92.35113404 24.37207031 110.52197266 C16.81635519 120.85262417 8.14087118 128.02107933 -2.9375 134.3125 C-3.63101563 134.74046875 -4.32453125 135.1684375 -5.0390625 135.609375 C-13.90629176 140.68752391 -25.84799674 143.0331788 -35.9375 142.3125 C-36.185 143.01375 -36.4325 143.715 -36.6875 144.4375 C-38.09838026 147.68252459 -39.91645398 150.41566737 -41.9375 153.3125 C-45.18187774 152.67271183 -47.5278051 151.50643394 -50.32421875 149.7578125 C-51.17185791 149.23106934 -52.01949707 148.70432617 -52.89282227 148.16162109 C-53.79444092 147.59266113 -54.69605957 147.02370117 -55.625 146.4375 C-56.55820068 145.85178223 -57.49140137 145.26606445 -58.45288086 144.66259766 C-60.36636563 143.45927722 -62.27823115 142.25337811 -64.18847656 141.04492188 C-66.67600055 139.47729575 -69.17509505 137.93076244 -71.6796875 136.390625 C-83.36777344 129.12838954 -94.4129809 121.09658882 -101.9375 109.3125 C-102.79601562 108.02666016 -102.79601562 108.02666016 -103.671875 106.71484375 C-113.42326673 91.23346756 -117.91628869 71.18248646 -114.50683594 53.01806641 C-113.33189029 48.31302913 -111.70532524 43.82403088 -109.9375 39.3125 C-109.61523438 38.45269531 -109.29296875 37.59289062 -108.9609375 36.70703125 C-102.87943342 21.76768427 -92.32786633 10.0436453 -78.9375 1.3125 C-78.22078125 0.84070312 -77.5040625 0.36890625 -76.765625 -0.1171875 C-53.41957871 -14.2476892 -23.31645777 -13.38281896 0 0 Z M-87.9375 11.3125 C-88.78054687 12.05113281 -89.62359375 12.78976563 -90.4921875 13.55078125 C-102.84547227 25.02168854 -111.42472146 42.28102764 -112.30859375 59.23828125 C-112.82374447 81.74849045 -107.40935934 101.31041561 -91.99609375 118.2578125 C-86.9471954 123.49092961 -81.03698919 127.41289809 -74.9375 131.3125 C-74.17775879 131.80137695 -73.41801758 132.29025391 -72.63525391 132.79394531 C-67.80895583 135.88984133 -62.95315981 138.9357048 -58.08447266 141.96435547 C-56.1710491 143.16584795 -54.27471031 144.3879754 -52.38671875 145.62890625 C-51.41347656 146.26699219 -50.44023438 146.90507812 -49.4375 147.5625 C-48.6228125 148.10390625 -47.808125 148.6453125 -46.96875 149.203125 C-44.88442333 150.55216253 -44.88442333 150.55216253 -41.9375 150.3125 C-40.46507524 148.61716389 -40.46507524 148.61716389 -39.25 146.4375 C-38.81300781 145.71820313 -38.37601562 144.99890625 -37.92578125 144.2578125 C-36.78652226 142.37897818 -36.78652226 142.37897818 -36.9375 140.3125 C-35.865 140.374375 -34.7925 140.43625 -33.6875 140.5 C-15.74800761 140.43694379 2.04518936 130.65191978 14.7890625 118.671875 C29.30636211 103.60581148 35.61949205 84.15345746 35.48046875 63.61450195 C34.91256309 42.84867646 26.707435 26.631992 12.0625 12.3125 C11.42957031 11.64734375 10.79664063 10.9821875 10.14453125 10.296875 C0.91263337 1.24839231 -12.66935212 -3.5128477 -24.9375 -6.6875 C-25.55882812 -6.87828125 -26.18015625 -7.0690625 -26.8203125 -7.265625 C-48.58382352 -11.60226557 -71.91788246 -3.20032183 -87.9375 11.3125 Z " fill="#D3DA02" transform="translate(169.9375,58.6875)"/>
<path d="M0 0 C4.86330374 2.47526894 8.60996752 6.46858451 10.9296875 11.38671875 C11.89287378 16.50410538 11.75271803 21.46944487 9.4296875 26.19921875 C6.64841755 30.1972943 3.38011977 33.34873763 -1.0703125 35.38671875 C-6.72385923 36.35865395 -11.38006334 36.20166031 -16.5703125 33.69921875 C-20.8285854 29.76031631 -24.63793158 25.71504626 -25.40625 19.80078125 C-25.49053458 13.78286229 -25.28196391 10.04170189 -21.0703125 5.38671875 C-14.74643982 -0.53384572 -8.62274807 -2.55428575 0 0 Z " fill="#DFF100" transform="translate(138.0703125,107.61328125)"/>
<path d="M0 0 C4.86330374 2.47526894 8.60996752 6.46858451 10.9296875 11.38671875 C11.89287378 16.50410538 11.75271803 21.46944487 9.4296875 26.19921875 C6.64841755 30.1972943 3.38011977 33.34873763 -1.0703125 35.38671875 C-6.72385923 36.35865395 -11.38006334 36.20166031 -16.5703125 33.69921875 C-20.8285854 29.76031631 -24.63793158 25.71504626 -25.40625 19.80078125 C-25.49053458 13.78286229 -25.28196391 10.04170189 -21.0703125 5.38671875 C-14.74643982 -0.53384572 -8.62274807 -2.55428575 0 0 Z M-17.8828125 9.01171875 C-19.72382704 12.69374782 -20.19133206 16.28629146 -20.0703125 20.38671875 C-18.6098511 24.5375038 -17.05323018 27.39525991 -13.0703125 29.38671875 C-8.64835246 30.47533105 -5.1431908 30.71060654 -0.7578125 29.38671875 C2.61145443 26.87935731 4.68635319 24.37766837 5.9296875 20.38671875 C6.35034469 15.47344283 5.68368324 12.34449712 2.6171875 8.44921875 C-4.41529903 3.0521942 -10.94258582 2.78944656 -17.8828125 9.01171875 Z " fill="#141600" transform="translate(138.0703125,107.61328125)"/>
<path d="M0 0 C3.71263678 0.56922742 6.31296233 1.55764359 9.484375 3.5546875 C10.3297583 4.08215576 11.1751416 4.60962402 12.04614258 5.15307617 C13.384552 6.00542847 13.384552 6.00542847 14.75 6.875 C15.66998779 7.45419189 16.58997559 8.03338379 17.5378418 8.63012695 C19.43240884 9.82563875 21.32457311 11.02496651 23.21435547 12.22802734 C25.85645816 13.90869179 28.50724619 15.57474877 31.16015625 17.23828125 C32.71156011 18.22037133 34.26237421 19.20339386 35.8125 20.1875 C36.54114258 20.64431152 37.26978516 21.10112305 38.02050781 21.57177734 C39.71616031 22.6606563 41.36425755 23.82303721 43 25 C43 25.66 43 26.32 43 27 C39.75562226 26.36021183 37.4096949 25.19393394 34.61328125 23.4453125 C33.76475586 22.91784424 32.91623047 22.39037598 32.04199219 21.84692383 C31.14125977 21.27868896 30.24052734 20.7104541 29.3125 20.125 C28.38727539 19.54580811 27.46205078 18.96661621 26.50878906 18.36987305 C23.66801331 16.58696245 20.83331161 14.79474391 18 13 C17.1322998 12.45263184 16.26459961 11.90526367 15.37060547 11.34130859 C12.99263761 9.83852953 10.62004109 8.32774267 8.25 6.8125 C7.52981689 6.35568848 6.80963379 5.89887695 6.06762695 5.42822266 C1.11693876 2.23387752 1.11693876 2.23387752 0 0 Z " fill="#D9DF02" transform="translate(85,185)"/>
<path d="M0 0 C0.33 0 0.66 0 1 0 C1.02578125 0.969375 1.0515625 1.93875 1.078125 2.9375 C1.42298114 11.9252426 2.74925746 20.10799027 5.16015625 28.76953125 C6 32 6 32 6 35 C5.34 35 4.68 35 4 35 C0.71869556 26.86705256 -1.87117932 19.86635732 -1 11 C-0.92007813 9.99066406 -0.84015625 8.98132813 -0.7578125 7.94140625 C-0.53490559 5.29016499 -0.28165473 2.64554266 0 0 Z " fill="#C1CB01" transform="translate(57,119)"/>
<path d="M0 0 C0.99 0.495 0.99 0.495 2 1 C4.0459055 7.23786572 4.2482422 12.97764372 4.125 19.5 C4.11597656 20.4178125 4.10695312 21.335625 4.09765625 22.28125 C4.07432432 24.52111556 4.04159235 26.76041183 4 29 C3.67 29 3.34 29 3 29 C2.92652344 27.76636719 2.92652344 27.76636719 2.8515625 26.5078125 C2.43293087 20.25720918 1.75708585 14.28402686 0.41015625 8.16796875 C-0.10944866 5.42148564 -0.14663486 2.78606235 0 0 Z " fill="#E2E703" transform="translate(203,102)"/>
<path d="M0 0 C3.95818926 -0.08821107 7.91612062 -0.14079412 11.875 -0.1875 C13.53789062 -0.22520508 13.53789062 -0.22520508 15.234375 -0.26367188 C22.35427541 -0.32649453 28.32474802 0.48757489 35 3 C34.67 3.66 34.34 4.32 34 5 C26.25 4.25 26.25 4.25 24 2 C21.47962036 1.62864085 21.47962036 1.62864085 18.5546875 1.5859375 C16.94013672 1.52792969 16.94013672 1.52792969 15.29296875 1.46875 C14.16503906 1.4378125 13.03710938 1.406875 11.875 1.375 C10.17150391 1.31699219 10.17150391 1.31699219 8.43359375 1.2578125 C5.62256044 1.16332399 2.81153767 1.07776459 0 1 C0 0.67 0 0.34 0 0 Z " fill="#DECB09" transform="translate(119,49)"/>
<path d="M0 0 C0.33 0 0.66 0 1 0 C1.296 18.056 1.296 18.056 -2 23 C-2.0582253 19.91674642 -2.09367134 16.83363495 -2.125 13.75 C-2.14175781 12.87730469 -2.15851562 12.00460938 -2.17578125 11.10546875 C-2.18222656 10.26113281 -2.18867187 9.41679688 -2.1953125 8.546875 C-2.20578613 7.77182617 -2.21625977 6.99677734 -2.22705078 6.19824219 C-1.97326556 3.74116461 -1.22444152 2.12688458 0 0 Z " fill="#E7DA07" transform="translate(57,110)"/>
<path d="M0 0 C0.99 0 1.98 0 3 0 C1.3383196 4.12417063 -1.62338018 7.06554039 -4.625 10.25 C-5.140625 10.80429688 -5.65625 11.35859375 -6.1875 11.9296875 C-7.45425035 13.2902712 -8.72657815 14.64565837 -10 16 C-10 11.77280999 -7.67901374 9.51092445 -5.1875 6.3125 C-4.73568359 5.70599609 -4.28386719 5.09949219 -3.81835938 4.47460938 C-2.62158334 2.9214212 -1.3163831 1.45320402 0 0 Z " fill="#D2D902" transform="translate(191,168)"/>
<path d="M0 0 C0 2 0 2 -1.64453125 3.65625 C-2.71767578 4.56890625 -2.71767578 4.56890625 -3.8125 5.5 C-4.87404297 6.41265625 -4.87404297 6.41265625 -5.95703125 7.34375 C-8 9 -8 9 -11 11 C-11.66 10.34 -12.32 9.68 -13 9 C-11.40423801 7.49106184 -9.79810089 5.99308924 -8.1875 4.5 C-7.29417969 3.6646875 -6.40085937 2.829375 -5.48046875 1.96875 C-3 0 -3 0 0 0 Z " fill="#D1D403" transform="translate(87,65)"/>
<path d="M0 0 C-2.62984711 3.94477066 -4.43284559 4.02667201 -9 5 C-11.33215844 5.07403678 -13.66860788 5.09515886 -16 5 C-13.07880232 2.58152006 -10.5084932 1.31293234 -6.875 0.25 C-6.00617188 -0.01296875 -5.13734375 -0.2759375 -4.2421875 -0.546875 C-2 -1 -2 -1 0 0 Z " fill="#C8D101" transform="translate(161,194)"/>
<path d="M0 0 C1.32 0 2.64 0 4 0 C3.34 2.64 2.68 5.28 2 8 C1.34 7.34 0.68 6.68 0 6 C-0.66 6.99 -1.32 7.98 -2 9 C-1.125 2.25 -1.125 2.25 0 0 Z " fill="#1F2200" transform="translate(63,96)"/>
<path d="M0 0 C0.99 0 1.98 0 3 0 C4.85776765 3.13498292 5.20140476 5.37471432 5 9 C0.57142857 3.85714286 0.57142857 3.85714286 0 0 Z " fill="#D8DB03" transform="translate(61,154)"/>
<path d="M0 0 C3.25543229 0.34879632 4.01873107 1.02133261 6.25 3.5625 C6.8275 4.366875 7.405 5.17125 8 6 C5 6 5 6 3.61328125 4.6875 C2.40885417 3.125 1.20442708 1.5625 0 0 Z " fill="#C8D500" transform="translate(181,70)"/>
<path d="M0 0 C-1.49097658 3.7952131 -3.75700849 5.61042731 -7 8 C-4.18918919 0 -4.18918919 0 0 0 Z " fill="#E2E303" transform="translate(187,176)"/>
<path d="M0 0 C5.75 0.875 5.75 0.875 8 2 C8 2.66 8 3.32 8 4 C5.23723823 3.47731534 2.6739124 2.89130413 0 2 C0 1.34 0 0.68 0 0 Z " fill="#C8D301" transform="translate(153,53)"/>
</svg>
